<svg width="19" height="52" viewBox="0 0 19 52" fill="none" xmlns="http://www.w3.org/2000/svg">
<mask id="path-1-outside-1_1_20" maskUnits="userSpaceOnUse" x="-0.447998" y="-0.428009" width="19" height="52" fill="black">
<rect fill="white" x="-0.447998" y="-0.428009" width="19" height="52"/>
<path d="M1 9.77199V0.999989H17.388V50.572H7.596V9.77199H1Z"/>
</mask>
<path d="M1 9.77199H2.14577e-06V10.772H1V9.77199ZM1 0.999989V-1.14441e-05H2.14577e-06V0.999989H1ZM17.388 0.999989H18.388V-1.14441e-05H17.388V0.999989ZM17.388 50.572V51.572H18.388V50.572H17.388ZM7.596 50.572H6.596V51.572H7.596V50.572ZM7.596 9.77199H8.596V8.77199H7.596V9.77199ZM2 9.77199V0.999989H2.14577e-06V9.77199H2ZM1 1.99999H17.388V-1.14441e-05H1V1.99999ZM16.388 0.999989V50.572H18.388V0.999989H16.388ZM17.388 49.572H7.596V51.572H17.388V49.572ZM8.596 50.572V9.77199H6.596V50.572H8.596ZM7.596 8.77199H1V10.772H7.596V8.77199Z" fill="white" mask="url(#path-1-outside-1_1_20)"/>
</svg>
