<svg width="36" height="54" viewBox="0 0 36 54" fill="none" xmlns="http://www.w3.org/2000/svg">
<mask id="path-1-outside-1_1_17" maskUnits="userSpaceOnUse" x="-0.0231934" y="-0.271996" width="36" height="54" fill="black">
<rect fill="white" x="-0.0231934" y="-0.271996" width="36" height="54"/>
<path d="M1.71681 15.212C1.94347 10.6787 3.53014 7.188 6.47681 4.74C9.46881 2.24667 13.3901 1 18.2408 1C21.5501 1 24.3835 1.58933 26.7408 2.768C29.0981 3.90133 30.8661 5.46533 32.0448 7.46C33.2688 9.40934 33.8808 11.6307 33.8808 14.124C33.8808 16.98 33.1328 19.4053 31.6368 21.4C30.1861 23.3493 28.4408 24.664 26.4008 25.344V25.616C29.0301 26.432 31.0701 27.8827 32.5208 29.968C34.0168 32.0533 34.7648 34.728 34.7648 37.992C34.7648 40.712 34.1301 43.1373 32.8608 45.268C31.6368 47.3987 29.8008 49.076 27.3528 50.3C24.9501 51.4787 22.0488 52.068 18.6488 52.068C13.5261 52.068 9.35547 50.776 6.13681 48.192C2.91814 45.608 1.21814 41.8 1.03681 36.768H10.2848C10.3755 38.9893 11.1235 40.78 12.5288 42.14C13.9795 43.4547 15.9515 44.112 18.4448 44.112C20.7568 44.112 22.5248 43.4773 23.7488 42.208C25.0181 40.8933 25.6528 39.216 25.6528 37.176C25.6528 34.456 24.7915 32.5067 23.0688 31.328C21.3461 30.1493 18.6715 29.56 15.0448 29.56H13.0728V21.74H15.0448C21.4821 21.74 24.7008 19.5867 24.7008 15.28C24.7008 13.3307 24.1115 11.812 22.9328 10.724C21.7995 9.636 20.1448 9.092 17.9688 9.092C15.8381 9.092 14.1835 9.68134 13.0048 10.86C11.8715 11.9933 11.2141 13.444 11.0328 15.212H1.71681Z"/>
</mask>
<path d="M1.71681 15.212L0.718055 15.1621L0.665558 16.212H1.71681V15.212ZM6.47681 4.74L7.11583 5.50919L7.11699 5.50822L6.47681 4.74ZM26.7408 2.768L26.2936 3.66243L26.3005 3.6659L26.3075 3.66925L26.7408 2.768ZM32.0448 7.46L31.1839 7.96873L31.1907 7.98035L31.1979 7.99177L32.0448 7.46ZM31.6368 21.4L30.8368 20.8L30.8346 20.803L31.6368 21.4ZM26.4008 25.344L26.0846 24.3953L25.4008 24.6232V25.344H26.4008ZM26.4008 25.616H25.4008V26.3527L26.1044 26.5711L26.4008 25.616ZM32.5208 29.968L31.6999 30.5391L31.704 30.545L31.7083 30.5509L32.5208 29.968ZM32.8608 45.268L32.0017 44.7562L31.9977 44.763L31.9937 44.7699L32.8608 45.268ZM27.3528 50.3L27.7932 51.1978L27.8 51.1944L27.3528 50.3ZM6.13681 48.192L5.51077 48.9718L6.13681 48.192ZM1.03681 36.768V35.768H0.000121593L0.0374553 36.804L1.03681 36.768ZM10.2848 36.768L11.284 36.7272L11.2448 35.768H10.2848V36.768ZM12.5288 42.14L11.8334 42.8586L11.8452 42.87L11.8573 42.881L12.5288 42.14ZM23.7488 42.208L23.0294 41.5134L23.029 41.5139L23.7488 42.208ZM13.0728 29.56H12.0728V30.56H13.0728V29.56ZM13.0728 21.74V20.74H12.0728V21.74H13.0728ZM22.9328 10.724L22.2403 11.4454L22.2473 11.4522L22.2545 11.4588L22.9328 10.724ZM13.0048 10.86L13.7119 11.5671H13.7119L13.0048 10.86ZM11.0328 15.212V16.212H11.9355L12.0276 15.314L11.0328 15.212ZM2.71556 15.2619C2.93106 10.9518 4.42427 7.74525 7.11583 5.50919L5.83779 3.97081C2.63601 6.63075 0.955883 10.4055 0.718055 15.1621L2.71556 15.2619ZM7.11699 5.50822C9.88855 3.19859 13.5649 2 18.2408 2V0C13.2153 0 9.04906 1.29475 5.83662 3.97178L7.11699 5.50822ZM18.2408 2C21.4336 2 24.106 2.56865 26.2936 3.66243L27.188 1.87358C24.6609 0.610022 21.6667 0 18.2408 0V2ZM26.3075 3.66925C28.5104 4.72833 30.1184 6.16567 31.1839 7.96873L32.9057 6.95127C31.6138 4.765 29.6859 3.07434 27.1741 1.86675L26.3075 3.66925ZM31.1979 7.99177C32.3136 9.76853 32.8808 11.8025 32.8808 14.124H34.8808C34.8808 11.4588 34.2241 9.05014 32.8917 6.92824L31.1979 7.99177ZM32.8808 14.124C32.8808 16.7965 32.1846 19.003 30.8368 20.8L32.4368 22C34.081 19.8077 34.8808 17.1635 34.8808 14.124H32.8808ZM30.8346 20.803C29.4896 22.6103 27.9057 23.7883 26.0846 24.3953L26.717 26.2927C28.9759 25.5397 30.8827 24.0884 32.439 21.997L30.8346 20.803ZM25.4008 25.344V25.616H27.4008V25.344H25.4008ZM26.1044 26.5711C28.54 27.3269 30.3873 28.6522 31.6999 30.5391L33.3417 29.3969C31.753 27.1131 29.5203 25.5371 26.6972 24.6609L26.1044 26.5711ZM31.7083 30.5509C33.0529 32.4252 33.7648 34.8801 33.7648 37.992H35.7648C35.7648 34.5759 34.9808 31.6815 33.3333 29.3851L31.7083 30.5509ZM33.7648 37.992C33.7648 40.5498 33.17 42.7951 32.0017 44.7562L33.7199 45.7798C35.0902 43.4796 35.7648 40.8742 35.7648 37.992H33.7648ZM31.9937 44.7699C30.8786 46.711 29.1985 48.2591 26.9056 49.4056L27.8 51.1944C30.4031 49.8929 32.395 48.0864 33.7279 45.7661L31.9937 44.7699ZM26.9124 49.4022C24.6787 50.498 21.9362 51.068 18.6488 51.068V53.068C22.1614 53.068 25.2215 52.4594 27.7932 51.1978L26.9124 49.4022ZM18.6488 51.068C13.6975 51.068 9.76455 49.822 6.76284 47.4122L5.51077 48.9718C8.9464 51.73 13.3548 53.068 18.6488 53.068V51.068ZM6.76284 47.4122C3.81998 45.0496 2.20954 41.5432 2.03616 36.732L0.0374553 36.804C0.226744 42.0568 2.0163 46.1664 5.51077 48.9718L6.76284 47.4122ZM1.03681 37.768H10.2848V35.768H1.03681V37.768ZM9.28564 36.8088C9.38523 39.2488 10.218 41.2953 11.8334 42.8586L13.2242 41.4214C12.029 40.2647 11.3657 38.7299 11.284 36.7272L9.28564 36.8088ZM11.8573 42.881C13.538 44.4042 15.7735 45.112 18.4448 45.112V43.112C16.1295 43.112 14.4209 42.5052 13.2003 41.399L11.8573 42.881ZM18.4448 45.112C20.94 45.112 23.0026 44.4225 24.4687 42.9021L23.029 41.5139C22.047 42.5322 20.5736 43.112 18.4448 43.112V45.112ZM24.4682 42.9026C25.9391 41.3792 26.6528 39.4423 26.6528 37.176H24.6528C24.6528 38.9897 24.0972 40.4075 23.0294 41.5134L24.4682 42.9026ZM26.6528 37.176C26.6528 34.2372 25.7091 31.9228 23.6335 30.5027L22.5041 32.1533C23.8739 33.0905 24.6528 34.6748 24.6528 37.176H26.6528ZM23.6335 30.5027C21.6617 29.1536 18.7415 28.56 15.0448 28.56V30.56C18.6015 30.56 21.0306 31.1451 22.5041 32.1533L23.6335 30.5027ZM15.0448 28.56H13.0728V30.56H15.0448V28.56ZM14.0728 29.56V21.74H12.0728V29.56H14.0728ZM13.0728 22.74H15.0448V20.74H13.0728V22.74ZM15.0448 22.74C18.3435 22.74 20.9926 22.194 22.8429 20.9562C24.7643 19.6707 25.7008 17.7231 25.7008 15.28H23.7008C23.7008 17.1435 23.028 18.426 21.7308 19.2939C20.3624 20.2093 18.1835 20.74 15.0448 20.74V22.74ZM25.7008 15.28C25.7008 13.1164 25.0381 11.3064 23.6111 9.9892L22.2545 11.4588C23.1849 12.3176 23.7008 13.5449 23.7008 15.28H25.7008ZM23.6253 10.0026C22.244 8.67653 20.3023 8.092 17.9688 8.092V10.092C19.9873 10.092 21.3549 10.5955 22.2403 11.4454L23.6253 10.0026ZM17.9688 8.092C15.6503 8.092 13.7123 8.73828 12.2977 10.1529L13.7119 11.5671C14.6546 10.6244 16.026 10.092 17.9688 10.092V8.092ZM12.2977 10.1529C10.9839 11.4667 10.2401 13.1397 10.038 15.11L12.0276 15.314C12.1882 13.7483 12.7591 12.5199 13.7119 11.5671L12.2977 10.1529ZM11.0328 14.212H1.71681V16.212H11.0328V14.212Z" fill="white" mask="url(#path-1-outside-1_1_17)"/>
</svg>
