<svg width="36" height="52" viewBox="0 0 36 52" fill="none" xmlns="http://www.w3.org/2000/svg">
<mask id="path-1-outside-1_1_28" maskUnits="userSpaceOnUse" x="-0.958008" y="-0.339996" width="37" height="53" fill="black">
<rect fill="white" x="-0.958008" y="-0.339996" width="37" height="53"/>
<path d="M4.63799 40.916C8.98999 37.2893 12.458 34.2747 15.042 31.872C17.626 29.424 19.7793 26.8853 21.502 24.256C23.2247 21.6267 24.086 19.0427 24.086 16.504C24.086 14.192 23.542 12.3787 22.454 11.064C21.366 9.74933 19.6887 9.092 17.422 9.092C15.1553 9.092 13.41 9.86267 12.186 11.404C10.962 12.9 10.3273 14.9627 10.282 17.592H1.03399C1.21533 12.152 2.82466 8.02667 5.86199 5.216C8.94466 2.40533 12.8433 0.999999 17.558 0.999999C22.726 0.999999 26.6927 2.38267 29.458 5.148C32.2233 7.868 33.606 11.472 33.606 15.96C33.606 19.496 32.654 22.8733 30.75 26.092C28.846 29.3107 26.67 32.1213 24.222 34.524C21.774 36.8813 18.578 39.7373 14.634 43.092H34.694V50.98H1.10199V43.908L4.63799 40.916Z"/>
</mask>
<path d="M4.63799 40.916L3.99779 40.1478L3.99205 40.1526L4.63799 40.916ZM15.042 31.872L15.723 32.6044L15.7297 32.598L15.042 31.872ZM21.502 24.256L22.3385 24.804L21.502 24.256ZM22.454 11.064L21.6836 11.7016L22.454 11.064ZM12.186 11.404L12.9599 12.0372L12.9646 12.0316L12.9691 12.0259L12.186 11.404ZM10.282 17.592V18.592H11.2649L11.2818 17.6092L10.282 17.592ZM1.03399 17.592L0.0345476 17.5587L0.000103712 18.592H1.03399V17.592ZM5.86199 5.216L5.18822 4.47703L5.1828 4.48204L5.86199 5.216ZM29.458 5.148L28.7509 5.85513L28.7568 5.86093L29.458 5.148ZM30.75 26.092L31.6107 26.6011L30.75 26.092ZM24.222 34.524L24.9157 35.2444L24.9225 35.2377L24.222 34.524ZM14.634 43.092L13.9861 42.3303L11.9149 44.092H14.634V43.092ZM34.694 43.092H35.694V42.092H34.694V43.092ZM34.694 50.98V51.98H35.694V50.98H34.694ZM1.10199 50.98H0.101992V51.98H1.10199V50.98ZM1.10199 43.908L0.45605 43.1446L0.101992 43.4442V43.908H1.10199ZM5.27818 41.6842C9.63687 38.052 13.1202 35.0244 15.7229 32.6043L14.361 31.1397C11.7958 33.5249 8.34312 36.5267 3.99781 40.1478L5.27818 41.6842ZM15.7297 32.598C18.3628 30.1035 20.5681 27.5061 22.3385 24.804L20.6655 23.708C18.9905 26.2645 16.8892 28.7445 14.3542 31.146L15.7297 32.598ZM22.3385 24.804C24.1423 22.0507 25.086 19.2792 25.086 16.504H23.086C23.086 18.8061 22.307 21.2026 20.6655 23.708L22.3385 24.804ZM25.086 16.504C25.086 14.0418 24.5061 11.9751 23.2244 10.4264L21.6836 11.7016C22.5779 12.7822 23.086 14.3422 23.086 16.504H25.086ZM23.2244 10.4264C21.8886 8.81237 19.8822 8.092 17.422 8.092V10.092C19.4951 10.092 20.8434 10.6863 21.6836 11.7016L23.2244 10.4264ZM17.422 8.092C14.9024 8.092 12.8468 8.96386 11.4029 10.7821L12.9691 12.0259C13.9732 10.7615 15.4082 10.092 17.422 10.092V8.092ZM11.412 10.7708C10.0019 12.4943 9.32997 14.801 9.28214 17.5748L11.2818 17.6092C11.3247 15.1244 11.9221 13.3057 12.9599 12.0372L11.412 10.7708ZM10.282 16.592H1.03399V18.592H10.282V16.592ZM2.03344 17.6253C2.20879 12.3647 3.75597 8.52732 6.54118 5.94996L5.1828 4.48204C1.89335 7.52601 0.221862 11.9393 0.0345476 17.5587L2.03344 17.6253ZM6.53575 5.95496C9.40997 3.33434 13.0577 2 17.558 2V0C12.6289 0 8.47935 1.47632 5.18824 4.47705L6.53575 5.95496ZM17.558 2C22.5491 2 26.2275 3.33171 28.7509 5.85511L30.1651 4.4409C27.1578 1.43363 22.9028 0 17.558 0V2ZM28.7568 5.86093C31.3007 8.36315 32.606 11.6944 32.606 15.96H34.606C34.606 11.2496 33.146 7.37286 30.1592 4.43508L28.7568 5.86093ZM32.606 15.96C32.606 19.3064 31.7076 22.5091 29.8893 25.5829L31.6107 26.6011C33.6004 23.2375 34.606 19.6856 34.606 15.96H32.606ZM29.8893 25.5829C28.0256 28.7334 25.9021 31.4738 23.5215 33.8103L24.9225 35.2377C27.4378 32.7689 29.6664 29.888 31.6107 26.6011L29.8893 25.5829ZM23.5284 33.8037C21.1007 36.1414 17.9216 38.9828 13.9861 42.3303L15.2819 43.8537C19.2344 40.4918 22.4473 37.6212 24.9156 35.2443L23.5284 33.8037ZM14.634 44.092H34.694V42.092H14.634V44.092ZM33.694 43.092V50.98H35.694V43.092H33.694ZM34.694 49.98H1.10199V51.98H34.694V49.98ZM2.10199 50.98V43.908H0.101992V50.98H2.10199ZM1.74793 44.6714L5.28393 41.6794L3.99205 40.1526L0.45605 43.1446L1.74793 44.6714Z" fill="white" mask="url(#path-1-outside-1_1_28)"/>
</svg>
